<svg xmlns="http://www.w3.org/2000/svg" viewBox="0 0 460 460" xmlns:v="https://vecta.io/nano"><style><![CDATA[.B{fill-opacity:.355}.C{filter:url(#O)}.D{color-interpolation-filters:sRGB}]]></style><defs><linearGradient id="A" href="#W"><stop stop-color="#ff85a0" stop-opacity=".2" offset=".149"/><stop stop-color="#ff85a0" stop-opacity="0" offset=".747"/></linearGradient><linearGradient id="B" href="#W"><stop stop-opacity=".487" offset="0"/><stop stop-opacity="0" offset=".388"/></linearGradient><linearGradient ><stop stop-color="#00a56e" stop-opacity="0" offset=".597"/><stop stop-color="#00a677" offset=".799"/><stop stop-color="#00a676" offset=".95"/><stop stop-color="#00c48e" offset="1"/></linearGradient><linearGradient ><stop stop-opacity="0" offset=".55"/><stop stop-opacity=".703" offset=".698"/><stop offset=".798"/></linearGradient><linearGradient id="E" x1="316.8" x2="310.05" y1="315.51" y2="260.49" href="#W"><stop stop-color="#fff" stop-opacity=".402" offset="0"/><stop stop-color="#fff" stop-opacity="0" offset=".403"/></linearGradient><linearGradient id="F" x1="278.78" x2="234.5" y1="260" y2="209.31" href="#W"><stop stop-color="#fff" stop-opacity=".603" offset="0"/><stop stop-color="#fff" stop-opacity="0" offset=".403"/></linearGradient><linearGradient id="G" x1="341.41" x2="396.29" y1="291.86" y2="284.14" href="#W"><stop stop-color="#fff" stop-opacity=".602" offset="0"/><stop stop-color="#fff" stop-opacity="0" offset=".403"/></linearGradient><linearGradient id="H" x1="285.71" x2="230.29" y1="320" y2="440" href="#W"><stop stop-color="#fff" stop-opacity=".496" offset="0"/><stop stop-color="#fff" stop-opacity="0" offset=".403"/></linearGradient><radialGradient id="I" cx="286.01" cy="288" r="27.713" gradientTransform="matrix(1.9893 4.4745e-7 -8.1411e-7 1.1547 -282.94 -44.554)" href="#W"><stop stop-color="#fff" stop-opacity=".802" offset="0"/><stop stop-color="#fff" stop-opacity=".503" offset="1"/></radialGradient><linearGradient id="J" x1="264.93" x2="285.71" y1="420" y2="320" href="#B"/><linearGradient id="K" x1="299.57" x2="292.64" y1="264" y2="324" href="#B"/><linearGradient id="L" x1="403.49" x2="341.14" y1="276" y2="288" href="#B"/><linearGradient id="M" x1="223.36" x2="278.78" y1="220" y2="252" href="#W"><stop stop-opacity=".487" offset="0"/><stop stop-opacity="0" offset=".387"/></linearGradient><linearGradient id="N" x1="223.36" x2="278.78" y1="196" y2="268" href="#B"/><filter id="O" x="0" y="0" width="1" height="1" class="D"><feColorMatrix type="hueRotate" values="180"/><feColorMatrix values="-1 0 0 0 1 0 -1 0 0 1 0 0 -1 0 1 -0.21 -0.72 -0.07 2 0 "/></filter><radialGradient id="P" cx="55.082" cy="84" r="193.99" gradientTransform="matrix(1 0 0 1.1547 0 -12.995)" href="#W"><stop stop-color="#fff" stop-opacity="0" offset=".402"/><stop stop-color="#fff" stop-opacity=".197" offset=".846"/><stop stop-color="#fff" stop-opacity=".497" offset="1"/></radialGradient><filter id="Q" x="0" y="0" width="1" height="1" class="D"><feColorMatrix type="hueRotate" values="180"/><feColorMatrix values="1 0 0 0 0 0 1 0 0 0 0 0 1 0 0 -0.21 -0.72 -0.07 2 0 "/></filter><linearGradient id="R" x1="285.71" x2="91.723" y1="288" y2="296" href="#A"/><linearGradient id="S" x1="285.71" x2="417.35" y1="288" y2="436" href="#A"/><linearGradient id="T" x1="285.71" x2="431.21" y1="288" y2="148" href="#A"/><path id="U" d="m285.71 320v-64l55.426 32z"/><path id="V" d="m285.71 256-55.426-32 55.426-32z"/><linearGradient id="W" gradientUnits="userSpaceOnUse"/></defs><g transform="translate(-56.01 -57.25)"><path d="M479.7 400L285.71 512 91.72 400V176L285.71 64 479.7 176z" fill="#fff" paint-order="markers fill stroke"/><path d="M119.44 416l166.28-96V64L91.73 176v224z" fill="#303030" paint-order="markers fill stroke" class="C"/><path d="m341.14 288-221.7 128 166.28 96 193.99-112v-32z" fill="#1c1c1c" paint-order="markers fill stroke" class="C"/><path d="M285.71 64v192L479.7 368V176z" fill="#464646" paint-order="markers fill stroke" class="C"/><path transform="translate(230.63 204)" d="M249.07 196L55.08 308-138.91 196V-28L55.08-140 249.07-28z" fill="url(#P)" paint-order="markers fill stroke"/><path d="m230.29 224 55.426-32v-64l55.426 32-55.426 32v64l55.426 32 55.426-32v64l-55.426-32-55.426 32v128l-110.85-64 110.85-64v-64z" fill="#00885b" filter="url(#Q)" paint-order="markers fill stroke"/><path d="M285.71 480V320l55.426-32 110.85 64v32z" fill="url(#S)" paint-order="markers fill stroke"/><path d="m147.15 400 138.56-80v-64l-138.56-80-27.713 16v192z" fill="url(#R)" paint-order="markers fill stroke"/><path d="m368.85 144-83.138 48v64l55.426 32 110.85-64v-32z" fill="url(#T)" paint-order="markers fill stroke"/><path d="m174.86 384 110.85-64v128z" fill="url(#H)" paint-order="markers fill stroke"/><use href="#U" fill="url(#I)" paint-order="markers fill stroke" class="B"/><path d="m341.14 288 55.426-32v64z" fill="url(#G)" paint-order="markers fill stroke"/><path d="m285.71 256v-64l-55.426 32z" fill="url(#F)" paint-order="markers fill stroke"/><use href="#U" y="-128" fill="url(#E)" paint-order="markers fill stroke"/><path d="m285.71 320-110.85 64 110.85 64z" fill="url(#J)" paint-order="markers fill stroke" class="B"/><use href="#U" y="-128" fill="url(#K)" paint-order="markers fill stroke"/><path d="m341.14 288 55.426-32v64z" fill="url(#L)" paint-order="markers fill stroke" class="B"/><use href="#V" fill="url(#M)" paint-order="markers fill stroke" class="B"/><use href="#V" fill="url(#N)" paint-order="markers fill stroke"/></g></svg>